# xmcd CD database file
#
# Track frame offsets:
#	187
#	14650
#	27832
#	42492
#	55947
#	70777
#	89097
#	99350
#	122890
#	139487
#	160435
#
# Disc length: 2422 seconds
#
# Revision: 4
# Processed by: cddbd v1.5.2PL0 Copyright (c) Steve Scherf et al.
# Submitted via: CDex 1.51
#
DISCID=a009740b
DTITLE=John Denver - John Denver's Greatest Hits
DYEAR=1973
DGENRE=Country
TTITLE0=Take Me Home, Country Roads
TTITLE1=Follow Me
TTITLE2=Starwood In Aspen
TTITLE3=For Baby (For Bobbie)
TTITLE4=Rhymes And Reasons
TTITLE5=Leaving, On A Jet Plane
TTITLE6=The Eagle And The Hawk
TTITLE7=Sunshine On My Shoulders
TTITLE8=Goodbye Again
TTITLE9=Poems, Prayers And Promises
TTITLE10=Rocky Mountain High
EXTD=YEAR: 1973
EXTT0=
EXTT1=
EXTT2=
EXTT3=
EXTT4=
EXTT5=
EXTT6=
EXTT7=
EXTT8=
EXTT9=
EXTT10=
PLAYORDER=
